<?xml version="1.0" encoding="UTF-8"?>
<svg version="1.1" xmlns="http://www.w3.org/2000/svg" width="2000" height="887">
<path d="M0 0 C0.81339844 0.474375 1.62679687 0.94875 2.46484375 1.4375 C35.5370366 20.80756969 64.91359277 45.91272033 92 72.875 C92.69391846 73.56424561 93.38783691 74.25349121 94.1027832 74.96362305 C98.60441787 79.47938817 102.85611659 84.15519249 107 89 C107.46744629 89.54043945 107.93489258 90.08087891 108.41650391 90.63769531 C128.90231499 114.35492174 147.22311202 140.34619471 162 168 C162.70987061 169.32136963 162.70987061 169.32136963 163.43408203 170.66943359 C169.44741319 181.90029804 175.27433468 193.14467302 180.14135742 204.92553711 C180.80367014 206.52567108 181.47481453 208.1221514 182.1496582 209.71704102 C194.31204998 238.562752 203.0077372 268.299169 209 299 C209.37451294 300.88658325 209.37451294 300.88658325 209.7565918 302.8112793 C226.4589632 388.15906791 214.60976136 479.74073413 138.91503906 632.75415039 C132.8834597 641.67746958 126.30641085 650.05936546 119.39697266 658.31494141 C117.51016276 660.59085226 115.69401302 662.91973688 113.875 665.25 C109.64558028 670.55229139 105.04699774 675.49942057 100.42773438 680.45898438 C99.00944219 681.98980863 97.60424865 683.53158318 96.203125 685.078125 C88.55570537 693.51345243 80.77216205 701.7679933 72.10546875 709.171875 C69.64272972 711.3102087 67.26512657 713.53084599 64.875 715.75 C59.06052833 721.05048523 52.94368372 725.88693817 46.70703125 730.67822266 C45.14570542 731.88717832 43.6030563 733.12015565 42.0625 734.35546875 C26.70279547 746.54927673 10.0161469 757.24111533 -7.04394531 766.88964844 C-9.01459926 768.00828725 -10.97268005 769.14674568 -12.9296875 770.2890625 C-28.95902381 779.57411863 -45.83649818 787.07618495 -63 794 C-63.81130371 794.3285498 -64.62260742 794.65709961 -65.45849609 794.99560547 C-163.66256185 834.44279832 -272.8629101 834.28641023 -385 797 C-386.17731689 796.55116455 -386.17731689 796.55116455 -387.37841797 796.09326172 C-420.17004126 783.4625552 -451.13820998 767.02002307 -480 747 C-481.01078613 746.30197266 -481.01078613 746.30197266 -482.04199219 745.58984375 C-502.73466143 731.24521013 -522.36044191 714.96824551 -540 697 C-542.65395824 694.33274981 -545.32225722 691.68203093 -548.015625 689.0546875 C-553.96619115 683.22302292 -559.58773644 677.33392285 -564.76953125 670.79296875 C-566.77123084 668.28646226 -568.83350931 665.84628192 -570.92944336 663.41845703 C-581.62454179 650.99968254 -591.11738189 637.75993473 -600 624 C-600.46905762 623.27973633 -600.93811523 622.55947266 -601.42138672 621.81738281 C-624.59935132 586.16015141 -641.87001156 547.71816573 -654 507 C-654.24105469 506.19449707 -654.48210938 505.38899414 -654.73046875 504.55908203 C-666.46230074 465.1279183 -671.63665895 425.06536419 -671.44642639 383.95665741 C-671.43732765 381.83480707 -671.43340948 379.71299242 -671.43029785 377.59112549 C-671.38405031 355.84171796 -670.42376835 334.50248799 -667 313 C-666.70699631 310.95592037 -666.41524399 308.91166081 -666.125 306.8671875 C-654.47112411 229.31618188 -617.99444784 155.79886954 -568 96 C-567.53835449 95.44666992 -567.07670898 94.89333984 -566.60107422 94.32324219 C-560.7459225 87.32642281 -554.77886021 80.61195549 -548.23828125 74.23828125 C-546.17038244 72.17038244 -544.26421564 70.04288324 -542.375 67.8125 C-539.48532378 64.4344278 -536.34517993 61.57691627 -532.95703125 58.70703125 C-531.10019075 57.08739193 -529.39602508 55.39876709 -527.6875 53.625 C-524.01296859 49.89227465 -520.00513992 46.64613074 -515.92578125 43.3671875 C-513.07542658 41.06102604 -510.28915527 38.69205904 -507.5 36.3125 C-488.06520365 20.10423274 -466.8952798 6.59044755 -445 -6 C-444.1248877 -6.50821289 -443.24977539 -7.01642578 -442.34814453 -7.54003906 C-426.47416423 -16.71246886 -409.92911356 -24.04207954 -393 -31 C-392.02111816 -31.40234863 -391.04223633 -31.80469727 -390.03369141 -32.21923828 C-357.24881671 -45.53346446 -322.10108583 -54.52691269 -287 -59 C-285.36393799 -59.22212158 -285.36393799 -59.22212158 -283.69482422 -59.44873047 C-185.48729943 -72.3660164 -85.02576949 -49.94171482 0 0 Z " fill="#A40033" transform="translate(671,62)"/>
<path d="M0 0 C4.08138917 0.0113555 8.16251637 0.00462994 12.24389648 -0.00687027 C62.56814094 -0.12743509 62.56814094 -0.12743509 86.16357422 4.51074219 C87.30536133 4.72545166 88.44714844 4.94016113 89.62353516 5.16137695 C100.16806318 7.21825267 110.45736125 9.91612387 120.66357422 13.26074219 C121.36836914 13.48842285 122.07316406 13.71610352 122.79931641 13.95068359 C153.18317774 23.96008273 180.76373882 43.44070135 204.09326172 64.90917969 C206.35793134 66.98111146 208.65264011 69.00534469 210.97607422 71.01074219 C212.20722772 72.09181706 213.43649557 73.17504434 214.66357422 74.26074219 C215.27716797 74.79570312 215.89076172 75.33066406 216.52294922 75.88183594 C218.22607422 77.44824219 218.22607422 77.44824219 220.66357422 80.26074219 C220.4107124 83.75475382 218.88897114 85.35541805 216.37451172 87.65917969 C215.68800537 88.29605713 215.00149902 88.93293457 214.29418945 89.58911133 C213.54983643 90.26449951 212.8054834 90.9398877 212.03857422 91.63574219 C211.2716626 92.34400146 210.50475098 93.05226074 209.71459961 93.78198242 C208.13135776 95.24375042 206.5451514 96.70231384 204.95605469 98.15771484 C201.65004358 101.19051353 198.3763783 104.25737453 195.10107422 107.32324219 C193.86821685 108.4732129 192.63514283 109.62295139 191.40185547 110.77246094 C182.66185005 118.92413047 173.94859983 127.10448454 165.24975586 135.30004883 C163.82666122 136.64003125 162.40268155 137.97907442 160.9777832 139.31713867 C157.43529302 142.64413795 153.90544254 145.9827774 150.39794922 149.34667969 C149.04899565 150.63053886 147.70003752 151.91439324 146.35107422 153.19824219 C145.73482178 153.79580322 145.11856934 154.39336426 144.48364258 155.0090332 C143.90751221 155.55487061 143.33138184 156.10070801 142.73779297 156.66308594 C142.23852295 157.14253662 141.73925293 157.6219873 141.22485352 158.1159668 C139.40974842 159.44685464 137.85971864 159.85057774 135.66357422 160.26074219 C134.555625 158.73707031 134.555625 158.73707031 133.42529297 157.18261719 C126.95834332 148.37420429 120.22817352 140.14103906 112.66357422 132.26074219 C112.09767578 131.62007812 111.53177734 130.97941406 110.94873047 130.31933594 C101.60407756 120.07112881 88.29874977 113.48570946 75.66357422 108.26074219 C74.72771484 107.87273437 73.79185547 107.48472656 72.82763672 107.08496094 C50.1746908 98.67935493 25.62562281 99.20080906 1.85107422 99.13574219 C1.06965057 99.13288208 0.28822693 99.13002197 -0.51687622 99.1270752 C-15.56227418 99.08834678 -30.30387828 99.45163877 -45.08642578 102.57324219 C-46.10607422 102.77369141 -47.12572266 102.97414063 -48.17626953 103.18066406 C-58.25902611 105.24449827 -67.93213744 108.39697549 -77.33642578 112.57324219 C-78.01229736 112.87319092 -78.68816895 113.17313965 -79.38452148 113.48217773 C-100.59839994 123.08472421 -117.85423718 137.57820191 -130.33642578 157.26074219 C-130.96419922 158.23914063 -131.59197266 159.21753906 -132.23876953 160.22558594 C-136.91979929 167.85658631 -140.37448839 175.83840214 -143.33642578 184.26074219 C-143.59311035 184.98729004 -143.84979492 185.71383789 -144.11425781 186.46240234 C-147.59195771 196.54665537 -149.97777925 206.6640786 -151.64892578 217.19824219 C-151.88796631 218.67707886 -151.88796631 218.67707886 -152.13183594 220.18579102 C-155.08627116 240.46455229 -154.49695148 261.15721221 -154.46679688 281.59863281 C-154.46110007 285.48100225 -154.46449692 289.3633032 -154.47022247 293.24567032 C-154.72345672 324.48336693 -154.72345672 324.48336693 -151.58642578 355.51074219 C-151.41159668 356.60499512 -151.23676758 357.69924805 -151.05664062 358.82666016 C-149.53372835 367.90931433 -147.35935945 376.57008112 -144.33642578 385.26074219 C-144.00022217 386.26041016 -144.00022217 386.26041016 -143.65722656 387.28027344 C-132.4882797 420.25901279 -111.13427031 444.46889513 -80.00830078 460.06933594 C-73.63143494 463.13934135 -67.15485691 465.34627988 -60.33642578 467.26074219 C-59.20462891 467.61652344 -58.07283203 467.97230469 -56.90673828 468.33886719 C-47.8143802 470.95903059 -38.67778789 472.04799197 -29.27392578 473.01074219 C-28.0318335 473.13852051 -26.78974121 473.26629883 -25.51000977 473.39794922 C-10.92345123 474.76336863 3.41485375 474.29847832 17.97607422 473.07324219 C18.75604767 473.00860779 19.53602112 472.94397339 20.33963013 472.87738037 C34.67616006 471.6635611 48.62616643 469.45127763 62.66357422 466.26074219 C63.60749023 466.0515918 64.55140625 465.84244141 65.52392578 465.62695312 C75.57656304 463.38953229 85.51090622 460.87456395 95.33764648 457.78417969 C98.65915954 456.75541081 101.13816012 456.26074219 104.66357422 456.26074219 C104.66357422 424.25074219 104.66357422 392.24074219 104.66357422 359.26074219 C70.67357422 359.26074219 36.68357422 359.26074219 1.66357422 359.26074219 C1.66357422 324.94074219 1.66357422 290.62074219 1.66357422 255.26074219 C72.28357422 255.26074219 142.90357422 255.26074219 215.66357422 255.26074219 C216.18788176 322.40347586 216.18788176 322.40347586 216.29833984 350.44238281 C216.3237916 356.86011179 216.3500577 363.27783664 216.37768555 369.69555664 C216.38111428 370.49989641 216.38454301 371.30423618 216.38807565 372.13294989 C216.44459408 385.11303859 216.54706916 398.09237747 216.66656057 411.07202177 C216.78819744 424.39599467 216.86035185 437.71957547 216.88672465 451.04408079 C216.90455 459.26436662 216.96080707 467.48253406 217.06648829 475.70216758 C217.13529156 481.34131403 217.15595824 486.97936807 217.13909212 492.61890363 C217.13077462 495.87222335 217.15050329 499.12107592 217.21324539 502.37390709 C217.56253843 521.41735555 217.56253843 521.41735555 214.39002776 526.16766858 C210.99195508 529.59546179 207.11134844 531.42301148 202.66357422 533.26074219 C201.1350561 534.16338491 199.61732481 535.08535662 198.12451172 536.04589844 C196.76833264 536.81532713 195.40628103 537.57449639 194.03857422 538.32324219 C193.28261963 538.73751465 192.52666504 539.15178711 191.74780273 539.57861328 C158.37856983 557.49244156 120.56222987 565.356549 83.35107422 570.38574219 C82.08690674 570.5567041 80.82273926 570.72766602 79.52026367 570.90380859 C77.67887817 571.14623291 77.67887817 571.14623291 75.80029297 571.39355469 C74.71449951 571.53680176 73.62870605 571.68004883 72.51000977 571.82763672 C44.41589541 574.99101081 15.99099052 574.44883569 -12.23535156 574.44604492 C-17.64364066 574.44594282 -23.05179993 574.45968539 -28.46005821 574.47681713 C-32.7020016 574.48804613 -36.94391441 574.48996096 -41.18587112 574.4894352 C-43.17810139 574.49059548 -45.17033298 574.49490357 -47.16254807 574.50276756 C-64.09830154 574.56347443 -81.5462605 574.34613814 -98.02392578 570.01074219 C-99.31459961 569.68432739 -99.31459961 569.68432739 -100.63134766 569.35131836 C-103.20860278 568.68306209 -105.77353246 567.98198119 -108.33642578 567.26074219 C-109.1055127 567.04434082 -109.87459961 566.82793945 -110.66699219 566.60498047 C-128.26330428 561.50277503 -145.15663692 553.50846968 -160.33642578 543.26074219 C-161.00657715 542.80940918 -161.67672852 542.35807617 -162.3671875 541.89306641 C-171.24488623 535.8773488 -179.5353032 529.64446153 -187.33642578 522.26074219 C-188.64402686 521.13005184 -189.95639668 520.00484823 -191.27392578 518.88574219 C-199.83318532 511.39855152 -207.46968283 503.32045694 -214.33642578 494.26074219 C-215.05443359 493.33648438 -215.77244141 492.41222656 -216.51220703 491.45996094 C-225.99222227 479.09828304 -233.93327053 465.94669389 -241.33642578 452.26074219 C-241.87009766 451.27847656 -242.40376953 450.29621094 -242.95361328 449.28417969 C-250.53462403 434.73683473 -256.31680472 419.1532004 -260.33642578 403.26074219 C-260.60664551 402.19799072 -260.60664551 402.19799072 -260.88232422 401.11376953 C-266.96178838 376.51557592 -267.80595178 351.43744653 -267.73940229 326.23133445 C-267.73161349 322.33372711 -267.73890332 318.43613699 -267.74356079 314.53852844 C-267.74896604 307.99936032 -267.74196863 301.46029497 -267.72753906 294.92114258 C-267.71124347 287.45197047 -267.71650005 279.98304463 -267.73301828 272.51387852 C-267.74680977 266.00759036 -267.74846773 259.50137459 -267.74070227 252.99507648 C-267.73611826 249.15027379 -267.73513379 245.30558514 -267.74531174 241.46079063 C-267.85727443 192.30751966 -261.48367343 142.97228251 -233.33642578 101.26074219 C-232.96050293 100.69838867 -232.58458008 100.13603516 -232.19726562 99.55664062 C-226.97243503 91.7931797 -221.30750704 84.73059203 -214.86767578 77.94433594 C-212.71709125 75.66431808 -210.67028854 73.34171945 -208.64892578 70.94824219 C-205.18246252 66.97845171 -201.40129378 63.60752625 -197.33642578 60.26074219 C-196.81016602 59.82213867 -196.28390625 59.38353516 -195.74169922 58.93164062 C-159.73512498 29.00955697 -116.23355827 11.85602161 -70.33642578 4.13574219 C-69.41917725 3.97686523 -68.50192871 3.81798828 -67.55688477 3.65429688 C-45.17137119 0.08344004 -22.60411558 -0.06338684 0 0 Z " fill="#666565" transform="translate(1779.33642578125,151.7392578125)"/>
<path d="M0 0 C38.61 0 77.22 0 117 0 C117 156.42 117 312.84 117 474 C211.05 474 305.1 474 402 474 C402 507 402 540 402 574 C269.34 574 136.68 574 0 574 C0 384.58 0 195.16 0 0 Z " fill="#656565" transform="translate(1081,152)"/>
<path d="M0 0 C0.87793716 0.00141495 1.75587433 0.0028299 2.66041565 0.00428772 C5.44161507 0.00984804 8.22273151 0.02239304 11.00390625 0.03515625 C12.89908737 0.04017638 14.79426977 0.04473839 16.68945312 0.04882812 C21.31516121 0.05895002 25.94069175 0.07853295 30.56640625 0.09765625 C30.56640625 11.31765625 30.56640625 22.53765625 30.56640625 34.09765625 C27.87613281 34.15824219 25.18585938 34.21882813 22.4140625 34.28125 C19.7461575 34.34343592 17.07827884 34.40665713 14.41040039 34.4699707 C12.58653207 34.51271386 10.76263902 34.55441711 8.9387207 34.5949707 C-8.15409928 34.97627569 -24.8697659 35.51158776 -41.74609375 38.47265625 C-42.99970703 38.68148437 -44.25332031 38.8903125 -45.54492188 39.10546875 C-68.21119297 42.9756077 -92.19912496 49.10227867 -113.0390625 58.98828125 C-115.43359375 60.09765625 -115.43359375 60.09765625 -119.18359375 61.47265625 C-139.10996324 68.79499685 -158.12737557 79.90969157 -175.43359375 92.09765625 C-176.58816944 92.89376926 -177.74311842 93.68934118 -178.8984375 94.484375 C-197.20335995 107.19719897 -213.38396233 122.00795315 -229.18359375 137.66015625 C-230.05910889 138.52253906 -230.93462402 139.38492188 -231.83666992 140.2734375 C-237.80301543 146.2324471 -243.20335974 152.48690983 -248.43359375 159.09765625 C-249.29165051 160.15756516 -250.14971988 161.21746387 -251.0078125 162.27734375 C-275.38200901 193.36458145 -294.06139191 228.62938608 -306.43359375 266.09765625 C-306.73378418 266.99548828 -307.03397461 267.89332031 -307.34326172 268.81835938 C-311.86656238 282.41117059 -315.20280009 295.9393968 -317.43237305 310.09594727 C-317.92374817 313.19960179 -318.4378211 316.11033831 -319.43359375 319.09765625 C-321.97487442 335.97731148 -322.72572477 352.99029907 -322.68359375 370.03515625 C-322.68263702 370.82105133 -322.6816803 371.60694641 -322.68069458 372.41665649 C-322.72969495 392.24019012 -322.72969495 392.24019012 -319.91552734 411.78955078 C-319.22477632 415.09773728 -318.90636305 418.42247813 -318.54833984 421.78027344 C-314.4912079 458.75981859 -300.76298653 495.34486464 -283.43359375 528.09765625 C-283.06153809 528.8045459 -282.68948242 529.51143555 -282.30615234 530.23974609 C-273.71775864 546.44082336 -263.71241647 561.64200066 -252.43359375 576.09765625 C-251.48806641 577.31582031 -251.48806641 577.31582031 -250.5234375 578.55859375 C-248.52307482 581.09704166 -246.48476459 583.60009752 -244.43359375 586.09765625 C-243.655 587.06316406 -242.87640625 588.02867187 -242.07421875 589.0234375 C-235.45279175 597.08263889 -228.22254605 604.52290022 -220.87109375 611.91015625 C-220.38849091 612.39793549 -219.90588806 612.88571472 -219.40866089 613.38827515 C-212.76630348 620.08672903 -205.8414841 626.25256129 -198.43359375 632.09765625 C-197.37353624 632.95552943 -196.31360585 633.81355975 -195.25390625 634.671875 C-180.22759988 646.45337028 -164.06710458 656.74703851 -147.43359375 666.09765625 C-146.82418945 666.44489746 -146.21478516 666.79213867 -145.58691406 667.14990234 C-125.83375214 678.35406709 -104.30079563 686.76852422 -82.46875 692.921875 C-79.59515486 693.73630131 -76.77388653 694.65080656 -73.94921875 695.62109375 C-69.71778558 697.04573804 -65.49060167 698.12780809 -61.12109375 699.03515625 C-59.93749268 699.2822937 -59.93749268 699.2822937 -58.72998047 699.53442383 C-51.21228245 701.04267002 -43.64609525 702.19000622 -36.05859375 703.28515625 C-34.90705811 703.45200928 -33.75552246 703.6188623 -32.5690918 703.79077148 C-17.67306652 705.86573884 -2.95039107 706.33566412 12.06640625 706.34765625 C13.0586319 706.34899567 14.05085754 706.35033508 15.07315063 706.35171509 C31.77216113 706.34684329 48.01652287 705.43873423 64.56640625 703.09765625 C66.12231853 702.90172886 67.67830082 702.70635607 69.234375 702.51171875 C94.84362566 699.02647078 121.52131198 691.16607779 144.91577148 680.32519531 C147.32570776 679.20912645 149.74764296 678.12928377 152.1796875 677.0625 C179.02704646 665.14820298 204.00225944 649.91336173 226.56640625 631.09765625 C227.54351563 630.29328125 228.520625 629.48890625 229.52734375 628.66015625 C246.70982214 614.41088571 263.06088435 598.93319281 276.56640625 581.09765625 C277.22672852 580.23817383 277.22672852 580.23817383 277.90039062 579.36132812 C292.56116588 560.27687435 305.31459708 540.29752178 315.8125 518.61328125 C317.01817099 516.1965688 318.23788173 513.9220701 319.609375 511.609375 C321.63693682 508.1113544 323.08463836 504.46110859 324.44140625 500.66015625 C324.95671863 499.24858375 325.47235301 497.83712877 325.98828125 496.42578125 C326.24802734 495.70970703 326.50777344 494.99363281 326.77539062 494.25585938 C327.54754359 492.14912104 328.34120439 490.05205985 329.14453125 487.95703125 C332.28607212 479.75669285 335.12972268 471.54038408 337.56640625 463.09765625 C337.76621094 462.41977051 337.96601562 461.74188477 338.171875 461.04345703 C342.354338 446.81991431 345.16813064 432.6011377 347.12890625 417.91015625 C347.30123779 416.62202026 347.30123779 416.62202026 347.47705078 415.30786133 C348.75956298 405.25482654 349.60421934 395.20061885 350.56640625 385.09765625 C274.99640625 385.09765625 199.42640625 385.09765625 121.56640625 385.09765625 C121.56640625 373.87765625 121.56640625 362.65765625 121.56640625 351.09765625 C208.35640625 351.09765625 295.14640625 351.09765625 384.56640625 351.09765625 C384.56640625 397.083514 382.3050238 439.01319124 367.56640625 482.09765625 C365.50378574 488.19341334 363.59871102 494.30935044 361.82421875 500.49609375 C360.4192641 504.51897633 358.70819242 508.31574434 356.91796875 512.1796875 C355.6157381 514.99115078 354.35026322 517.81629659 353.09375 520.6484375 C343.36838464 542.38010282 332.19327069 562.56655104 318.56640625 582.09765625 C317.81488281 583.1753125 317.06335938 584.25296875 316.2890625 585.36328125 C310.97112552 592.80186795 305.29794783 599.9755634 299.56640625 607.09765625 C298.35017578 608.62712891 298.35017578 608.62712891 297.109375 610.1875 C290.11382447 618.76763345 282.30485258 626.5714685 274.50390625 634.41015625 C273.67196243 635.25000061 273.67196243 635.25000061 272.82321167 636.10681152 C265.72693178 643.25508601 258.46329135 649.83261202 250.56640625 656.09765625 C248.75132595 657.6571581 246.93824299 659.21899437 245.12890625 660.78515625 C231.85232072 671.84611496 217.25398522 681.19134458 202.4140625 689.99462891 C200.86071422 690.92195812 199.32120313 691.87241044 197.78515625 692.828125 C190.89751675 697.10994089 183.65404453 700.63398376 176.37890625 704.19873047 C174.08771313 705.33506844 171.83042317 706.53328249 169.56640625 707.72265625 C164.11747076 710.45168759 158.40771475 712.47815901 152.69140625 714.5625 C148.87155249 715.96293521 145.13022839 717.52226548 141.37890625 719.09765625 C132.00727363 722.87797691 122.31334131 725.47333493 112.56640625 728.09765625 C111.81133789 728.30165039 111.05626953 728.50564453 110.27832031 728.71582031 C107.119178 729.56718972 103.95795775 730.40883586 100.79296875 731.23828125 C98.52127621 731.84333253 96.25875455 732.48335615 94.00390625 733.1484375 C90.96189454 733.98844755 88.05993195 734.58412981 84.94140625 735.03515625 C83.81476563 735.19886719 82.688125 735.36257813 81.52734375 735.53125 C80.90182617 735.62003418 80.27630859 735.70881836 79.63183594 735.80029297 C77.35038416 736.1287573 75.07180803 736.47419968 72.79296875 736.8203125 C71.05084026 737.07982351 69.30865256 737.33893739 67.56640625 737.59765625 C66.79216309 737.71616943 66.01791992 737.83468262 65.22021484 737.95678711 C48.39422659 740.41023006 31.62215698 741.47876524 14.62890625 741.41015625 C13.70296661 741.40866577 12.77702698 741.40717529 11.82302856 741.40563965 C-4.76577909 741.3580365 -20.98283335 740.33588713 -37.43359375 738.09765625 C-38.57586426 737.94780273 -39.71813477 737.79794922 -40.89501953 737.64355469 C-55.34174031 735.71677981 -69.39301217 733.00080508 -83.43359375 729.09765625 C-84.11405762 728.91170898 -84.79452148 728.72576172 -85.49560547 728.53417969 C-95.25846583 725.86121767 -104.76194045 722.74878718 -114.24609375 719.22265625 C-115.18751221 718.87388428 -115.18751221 718.87388428 -116.14794922 718.51806641 C-127.22290072 714.35760524 -137.9730605 709.55940448 -148.62109375 704.41015625 C-149.25632965 704.10329895 -149.89156555 703.79644165 -150.54605103 703.48028564 C-179.49623448 689.45184247 -207.28153771 671.23082801 -230.95703125 649.36328125 C-232.98763509 647.50563105 -235.04762049 645.70524136 -237.1328125 643.91015625 C-241.90279329 639.74560466 -246.39703637 635.3261989 -250.87109375 630.84765625 C-251.71148193 630.0064624 -252.55187012 629.16526855 -253.41772461 628.29858398 C-259.17284288 622.48632349 -264.41421283 616.55545696 -269.43359375 610.09765625 C-271.01347912 608.24055079 -272.59703405 606.38656296 -274.18359375 604.53515625 C-285.02325688 591.5275605 -294.47015987 577.44331465 -303.43359375 563.09765625 C-303.83562012 562.45731445 -304.23764648 561.81697266 -304.65185547 561.15722656 C-310.52522749 551.7549873 -315.64469181 542.09156524 -320.43359375 532.09765625 C-320.74570801 531.4526416 -321.05782227 530.80762695 -321.37939453 530.14306641 C-325.49734367 521.61626121 -329.1600223 512.98786914 -332.43359375 504.09765625 C-332.89507812 502.89625 -333.3565625 501.69484375 -333.83203125 500.45703125 C-343.12276809 475.66899254 -349.41311941 450.19830793 -353.55859375 424.09765625 C-353.7294751 423.0418335 -353.90035645 421.98601074 -354.07641602 420.89819336 C-356.60190467 404.53096321 -356.64827173 388.18107769 -356.67382812 371.65673828 C-356.68353674 367.86989394 -356.71464832 364.0835928 -356.74609375 360.296875 C-356.80195988 347.28107905 -356.30812038 334.85748345 -353.79142761 322.07580566 C-353.18157739 318.70447893 -352.81936349 315.31391748 -352.43359375 311.91015625 C-349.22518134 285.88351479 -343.01748971 258.44215224 -331.6328125 234.703125 C-330.33239612 231.87779039 -329.25670186 229.01665682 -328.18359375 226.09765625 C-319.10320809 202.27565683 -306.10688451 179.88330108 -291.43359375 159.09765625 C-290.88058594 158.31406738 -290.32757813 157.53047852 -289.7578125 156.72314453 C-281.88536275 145.64973538 -273.51919864 135.19349885 -264.43359375 125.09765625 C-263.76005859 124.33799561 -263.08652344 123.57833496 -262.39257812 122.7956543 C-256.95781253 116.69226012 -251.33977181 110.81075887 -245.55859375 105.03515625 C-244.67872803 104.15609619 -243.7988623 103.27703613 -242.89233398 102.37133789 C-237.77793945 97.30514332 -232.65817543 92.4847936 -226.96484375 88.07421875 C-224.59191677 86.22128502 -222.33131128 84.27327524 -220.07128906 82.28540039 C-205.82161259 69.84454057 -189.73475885 59.61849249 -173.43359375 50.09765625 C-172.74813477 49.69708008 -172.06267578 49.29650391 -171.35644531 48.88378906 C-161.58444756 43.20957496 -151.60479186 38.01665322 -141.43359375 33.09765625 C-140.49257813 32.63617188 -139.5515625 32.1746875 -138.58203125 31.69921875 C-132.38454017 28.75962328 -126.0189483 26.45042784 -119.53344727 24.23974609 C-116.38439885 23.16338165 -113.34009067 22.05596995 -110.296875 20.69921875 C-105.11733001 18.42939827 -99.68006087 16.85950095 -94.28442383 15.19091797 C-92.39763784 14.60588671 -90.5142138 14.01004829 -88.63085938 13.4140625 C-77.17536578 9.85332823 -65.69573408 7.34048539 -53.828125 5.6328125 C-50.77692702 5.15178359 -47.76430736 4.56392745 -44.73950195 3.94091797 C-36.04296378 2.17072245 -27.49115902 1.50827649 -18.62670898 1.25537109 C-16.26274222 1.11733831 -16.26274222 1.11733831 -13.26953125 0.59057617 C-8.81097064 0.01764886 -4.48823885 -0.0276162 0 0 Z " fill="#FCFAFB" transform="translate(429.43359375,72.90234375)"/>
<path d="M0 0 C11.22 0 22.44 0 34 0 C34 114.51 34 229.02 34 347 C64.36 347 94.72 347 126 347 C126 358.55 126 370.1 126 382 C84.42 382 42.84 382 0 382 C0 255.94 0 129.88 0 0 Z " fill="#FCF9FA" transform="translate(425,252)"/>
<path d="M0 0 C0.73734375 0.28875 1.4746875 0.5775 2.234375 0.875 C15.29187149 6.72475843 24.6671536 17.95952405 30 31 C34.8066112 44.26824967 32.38099894 58.88504657 26.9375 71.453125 C22.06445579 81.13153224 14.35072682 88.6806241 5 94 C3.99646484 94.58394531 3.99646484 94.58394531 2.97265625 95.1796875 C-8.14154227 101.20996551 -22.94053347 101.96604946 -35.16796875 99.3125 C-37.6014462 98.38398714 -39.75038616 97.30886623 -42 96 C-42.81210937 95.5875 -43.62421875 95.175 -44.4609375 94.75 C-57.10651551 87.90193314 -66.33706639 76.60961608 -70.9375 63 C-74.29501459 48.42965367 -72.9868254 33.9160944 -65.23828125 21.08203125 C-50.06570096 -1.23058682 -25.50659998 -10.0353836 0 0 Z " fill="#FDFBFC" transform="translate(325,255)"/>
</svg>
